<?xml version="1.0" encoding="UTF-8"?>
<svg id="Layer_1" xmlns="http://www.w3.org/2000/svg" version="1.1" viewBox="0 0 1280 1280">
  <!-- Generator: Adobe Illustrator 30.2.1, SVG Export Plug-In . SVG Version: 2.1.1 Build 1)  -->
  <defs>
    <style>
      .st0 {
        fill: #c6ff00;
      }

      .st1 {
        fill: #0a0b1f;
        stroke: #bdc1fe;
        stroke-width: 46.5px;
      }
    </style>
  </defs>
  <circle class="st0" cx="643.6" cy="636.4" r="632.1"/>
  <g>
    <path class="st1" d="M640.8,93.6c-299.8,1.5-541.5,245.8-540,545.5,1.5,299.8,245.8,541.5,545.5,540,299.8-1.5,541.5-245.8,540-545.5-1.5-297.6-242.4-538.4-540-540h-5.6Z"/>
    <path class="st1" d="M643.6,93.6v1085.5M1186.4,636.4H100.9M223.3,302.4c251.5,179.4,589.1,179.4,840.6,0M1063.9,970.4c-251.5-179.4-589.1-179.4-840.6,0M601.9,107.5c-293.6,248-330.6,687-82.7,980.6,25.2,29.8,52.8,57.5,82.7,82.7M685.4,1170.8c293.6-248,330.6-687,82.7-980.6-25.2-29.8-52.8-57.5-82.7-82.7"/>
  </g>
  <path class="st0" d="M234,711.8c-41.6,0-75.5-33.9-75.5-75.5s33.8-75.5,75.5-75.5,75.5,33.9,75.5,75.5-33.9,75.5-75.5,75.5Z"/>
  <path class="st0" d="M884.3,957.8c-41.6,0-75.5-33.9-75.5-75.5s33.9-75.5,75.5-75.5,75.5,33.9,75.5,75.5-33.8,75.5-75.5,75.5Z"/>
  <path class="st0" d="M767.3,495.2c-41.6,0-75.5-33.9-75.5-75.5s33.8-75.5,75.5-75.5,75.5,33.9,75.5,75.5-33.9,75.5-75.5,75.5Z"/>
</svg>