<?xml version="1.0" encoding="UTF-8"?>
<svg id="Layer_1" xmlns="http://www.w3.org/2000/svg" version="1.1" viewBox="0 0 1280 1280">
  <!-- Generator: Adobe Illustrator 30.2.1, SVG Export Plug-In . SVG Version: 2.1.1 Build 1)  -->
  <defs>
    <style>
      .st0 {
        fill: #282828;
      }

      .st1 {
        fill: #ff3636;
      }

      .st2 {
        fill: #707070;
      }
    </style>
  </defs>
  <circle class="st0" cx="640" cy="640" r="634.8"/>
  <path class="st2" d="M1200,640v-2.9c-1.5-305.6-251.5-555.5-557.2-557.1h-5.6c-149.6.8-289.9,59.7-395.1,166-104.4,105.5-161.8,245-161.9,393.3v3.6c1.6,307.8,252.5,557.1,559.9,557.1h2.8c149.6-.8,289.9-59.7,395.1-166,104.3-105.4,161.7-244.9,161.9-393.1v-.9h0ZM1133.9,607.5h-182c-3.2-62.4-14.5-124.1-33.8-183.5,44.4-18.1,86.8-40.8,127-67.4,50.7,72.1,82.6,158.1,88.7,250.9h0ZM1004.4,305.9c-34.7,22.5-71,41.7-109,57.4-27.3-63.7-64-123.8-109.7-177.9-7.1-8.4-14.4-16.6-21.9-24.6,93.7,24.4,176.8,75.7,240.5,145.1h.1ZM607.5,161.9v250.9c-55-2.7-109.5-12.2-162-28.1,36.7-84.3,91.6-160.1,162-222.8h0ZM607.5,477.9v129.7h-214.6c.3-6.3.8-12.6,1.3-18.9,4.2-49.2,13.7-97.1,28.4-143,59.9,18.5,122.1,29.4,184.9,32.2h0ZM607.5,672.5v129.5c-63.4,2.8-126.1,13.8-186.7,32.7-16.3-52.3-25.9-106.7-28.3-162.2h215ZM607.5,867v256.4c-22.7-20.2-44.1-42.2-63.6-65.3-41.9-49.6-75.6-104.3-100.5-162.4,53.3-16.3,108.4-26,164.2-28.7h-.1ZM672.4,477.9c4.2-.2,8.5-.4,12.7-.7,17.9-1.1,31.5-16.5,30.4-34.4s-16.3-31.6-34.4-30.4c-2.9.2-5.8.3-8.8.5v-251c22.7,20.2,44.1,42.2,63.7,65.4,40.6,48,73.4,101.3,98,157.8-4.5,1.4-9.1,2.7-13.6,4-17.3,4.8-27.4,22.7-22.5,40,4.8,17.3,22.7,27.3,40,22.5,6.4-1.8,12.8-3.7,19.1-5.6,16.8,52.3,26.8,106.6,29.9,161.6h-214.4v-129.6h-.1ZM516.3,160.4c-55.8,59.9-100.4,128.2-132.2,202.5-37.9-15.6-74.4-34.9-109.1-57.3,4.3-4.7,8.6-9.3,13-13.8,63.9-64.5,142.4-109.3,228.2-131.3h.1ZM310.8,672.5h16.7c2.5,63.1,13.4,125,32.2,184.3-43.5,17.9-85.3,40.4-125.2,66.7-50.5-72-82.4-158-88.4-251.1h18c17.9,0,32.5-14.5,32.5-32.5s-14.5-32.5-32.5-32.5h-18c5.9-91,36.3-177.3,88.2-251.2,40.2,26.6,82.7,49.3,127.1,67.4-16.5,51.1-27.3,104.6-31.9,159.4-.7,8.1-1.2,16.3-1.6,24.4h-17c-17.9,0-32.5,14.5-32.5,32.5s14.5,32.5,32.5,32.5h-.1ZM275.3,974.3c34.2-22.1,69.9-41.1,106.9-56.6,27.5,65.2,65.1,126.6,112.1,182.3,5,5.9,10.2,11.7,15.4,17.5-91.3-24.9-172.2-75.3-234.5-143.2h.1ZM770.1,1117.7c43.5-48,80.2-101.5,109.2-159.9,8-16.1,1.4-35.5-14.7-43.5-16.1-8-35.5-1.4-43.5,14.7-36.7,74-86.6,139.3-148.6,194.5v-256.5c43.6,2.1,87.3,8.5,130.4,19.3,17.5,4.4,35-6.2,39.4-23.6,4.3-17.4-6.2-35-23.6-39.4-48.4-12.1-97.3-19.2-146.2-21.3v-129.6h214.8c-1.9,42.1-7.9,84.2-18.2,125.8-4.3,17.4,6.3,35,23.7,39.3,17.5,4.3,35-6.3,39.3-23.7,11.6-46.7,18.3-94.1,20.2-141.4h181.6c-5.8,91-36.2,177.2-88.1,251-26.7-17.6-54.5-33.7-83.1-47.6-16.1-7.9-35.5-1.2-43.4,14.9-7.9,16.1-1.2,35.5,14.9,43.4,24.3,11.9,48,25.3,70.8,40.1-4.3,4.7-8.6,9.4-13.1,13.9-62.3,62.9-138.5,107-221.7,129.5h-.1Z"/>
  <path class="st1" d="M237.5,674.1c-18.8,0-34.2-15.3-34.2-34.2s15.3-34.2,34.2-34.2,34.2,15.3,34.2,34.2-15.3,34.2-34.2,34.2h0Z"/>
  <path class="st1" d="M880.8,910.9c-18.8,0-34.2-15.3-34.2-34.1s15.3-34.2,34.2-34.2,34.2,15.3,34.2,34.2-15.3,34.1-34.2,34.1Z"/>
  <path class="st1" d="M756.6,465c-18.8,0-34.2-15.3-34.2-34.2s15.3-34.1,34.2-34.1,34.2,15.3,34.2,34.1-15.3,34.2-34.2,34.2Z"/>
</svg>