<svg xmlns="http://www.w3.org/2000/svg" viewBox="0 0 400 560"><rect width="400" height="560" rx="16" fill="#111225"/><rect x="1" y="1" width="398" height="558" rx="15" fill="none" stroke="#96a9d4" stroke-width="1" opacity="0.15"/><g stroke="#96a9d4" fill="none" opacity="0.03"><path d="M-20,80 Q60,60 120,90 Q180,120 240,80 Q300,40 360,80 Q400,110 420,80" stroke-width="0.5"/><path d="M-20,470 Q60,450 120,480 Q180,510 240,470 Q300,430 360,470 Q400,500 420,470" stroke-width="0.5"/></g><text x="200" y="55" text-anchor="middle" font-family="Space Grotesk,sans-serif" font-size="11" font-weight="600" fill="#b5ff2e" letter-spacing="4">GEOCHECKR</text><g transform="translate(130,110)"><rect x="0" y="0" width="140" height="140" rx="8" fill="#111225" opacity="0.8"/><rect x="0.0" y="0.0" width="46.66666666666667" height="46.66666666666667" fill="#f5f5f0"/><rect x="6.666666666666667" y="6.666666666666667" width="33.333333333333336" height="33.333333333333336" fill="#111225"/><rect x="13.333333333333334" y="13.333333333333334" width="20.0" height="20.0" fill="#f5f5f0"/><rect x="93.33333333333334" y="0.0" width="46.66666666666667" height="46.66666666666667" fill="#f5f5f0"/><rect x="100.0" y="6.666666666666667" width="33.333333333333336" height="33.333333333333336" fill="#111225"/><rect x="106.66666666666667" y="13.333333333333334" width="20.0" height="20.0" fill="#f5f5f0"/><rect x="0.0" y="93.33333333333334" width="46.66666666666667" height="46.66666666666667" fill="#f5f5f0"/><rect x="6.666666666666667" y="100.0" width="33.333333333333336" height="33.333333333333336" fill="#111225"/><rect x="13.333333333333334" y="106.66666666666667" width="20.0" height="20.0" fill="#f5f5f0"/><rect x="53.333333333333336" y="0.0" width="6.666666666666667" height="6.666666666666667" fill="#f5f5f0"/><rect x="66.66666666666667" y="0.0" width="6.666666666666667" height="6.666666666666667" fill="#f5f5f0"/><rect x="73.33333333333334" y="0.0" width="6.666666666666667" height="6.666666666666667" fill="#f5f5f0"/><rect x="60.0" y="6.666666666666667" width="6.666666666666667" height="6.666666666666667" fill="#f5f5f0"/><rect x="73.33333333333334" y="6.666666666666667" width="6.666666666666667" height="6.666666666666667" fill="#f5f5f0"/><rect x="80.0" y="6.666666666666667" width="6.666666666666667" height="6.666666666666667" fill="#f5f5f0"/><rect x="46.66666666666667" y="13.333333333333334" width="6.666666666666667" height="6.666666666666667" fill="#f5f5f0"/><rect x="46.66666666666667" y="20.0" width="6.666666666666667" height="6.666666666666667" fill="#f5f5f0"/><rect x="66.66666666666667" y="20.0" width="6.666666666666667" height="6.666666666666667" fill="#f5f5f0"/><rect x="73.33333333333334" y="20.0" width="6.666666666666667" height="6.666666666666667" fill="#f5f5f0"/><rect x="80.0" y="20.0" width="6.666666666666667" height="6.666666666666667" fill="#f5f5f0"/><rect x="53.333333333333336" y="26.666666666666668" width="6.666666666666667" height="6.666666666666667" fill="#f5f5f0"/><rect x="60.0" y="26.666666666666668" width="6.666666666666667" height="6.666666666666667" fill="#f5f5f0"/><rect x="66.66666666666667" y="26.666666666666668" width="6.666666666666667" height="6.666666666666667" fill="#f5f5f0"/><rect x="80.0" y="26.666666666666668" width="6.666666666666667" height="6.666666666666667" fill="#f5f5f0"/><rect x="86.66666666666667" y="26.666666666666668" width="6.666666666666667" height="6.666666666666667" fill="#f5f5f0"/><rect x="46.66666666666667" y="33.333333333333336" width="6.666666666666667" height="6.666666666666667" fill="#f5f5f0"/><rect x="60.0" y="33.333333333333336" width="6.666666666666667" height="6.666666666666667" fill="#f5f5f0"/><rect x="73.33333333333334" y="33.333333333333336" width="6.666666666666667" height="6.666666666666667" fill="#f5f5f0"/><rect x="86.66666666666667" y="33.333333333333336" width="6.666666666666667" height="6.666666666666667" fill="#f5f5f0"/><rect x="46.66666666666667" y="40.0" width="6.666666666666667" height="6.666666666666667" fill="#f5f5f0"/><rect x="66.66666666666667" y="40.0" width="6.666666666666667" height="6.666666666666667" fill="#f5f5f0"/><rect x="73.33333333333334" y="40.0" width="6.666666666666667" height="6.666666666666667" fill="#f5f5f0"/><rect x="80.0" y="40.0" width="6.666666666666667" height="6.666666666666667" fill="#f5f5f0"/><rect x="86.66666666666667" y="40.0" width="6.666666666666667" height="6.666666666666667" fill="#f5f5f0"/><rect x="0.0" y="46.66666666666667" width="6.666666666666667" height="6.666666666666667" fill="#f5f5f0"/><rect x="13.333333333333334" y="46.66666666666667" width="6.666666666666667" height="6.666666666666667" fill="#f5f5f0"/><rect x="73.33333333333334" y="46.66666666666667" width="6.666666666666667" height="6.666666666666667" fill="#f5f5f0"/><rect x="80.0" y="46.66666666666667" width="6.666666666666667" height="6.666666666666667" fill="#f5f5f0"/><rect x="86.66666666666667" y="46.66666666666667" width="6.666666666666667" height="6.666666666666667" fill="#f5f5f0"/><rect x="93.33333333333334" y="46.66666666666667" width="6.666666666666667" height="6.666666666666667" fill="#f5f5f0"/><rect x="100.0" y="46.66666666666667" width="6.666666666666667" height="6.666666666666667" fill="#f5f5f0"/><rect x="106.66666666666667" y="46.66666666666667" width="6.666666666666667" height="6.666666666666667" fill="#f5f5f0"/><rect x="113.33333333333334" y="46.66666666666667" width="6.666666666666667" height="6.666666666666667" fill="#f5f5f0"/><rect x="133.33333333333334" y="46.66666666666667" width="6.666666666666667" height="6.666666666666667" fill="#f5f5f0"/><rect x="6.666666666666667" y="53.333333333333336" width="6.666666666666667" height="6.666666666666667" fill="#f5f5f0"/><rect x="26.666666666666668" y="53.333333333333336" width="6.666666666666667" height="6.666666666666667" fill="#f5f5f0"/><rect x="46.66666666666667" y="53.333333333333336" width="6.666666666666667" height="6.666666666666667" fill="#f5f5f0"/><rect x="53.333333333333336" y="53.333333333333336" width="6.666666666666667" height="6.666666666666667" fill="#f5f5f0"/><rect x="66.66666666666667" y="53.333333333333336" width="6.666666666666667" height="6.666666666666667" fill="#f5f5f0"/><rect x="80.0" y="53.333333333333336" width="6.666666666666667" height="6.666666666666667" fill="#f5f5f0"/><rect x="86.66666666666667" y="53.333333333333336" width="6.666666666666667" height="6.666666666666667" fill="#f5f5f0"/><rect x="93.33333333333334" y="53.333333333333336" width="6.666666666666667" height="6.666666666666667" fill="#f5f5f0"/><rect x="106.66666666666667" y="53.333333333333336" width="6.666666666666667" height="6.666666666666667" fill="#f5f5f0"/><rect x="113.33333333333334" y="53.333333333333336" width="6.666666666666667" height="6.666666666666667" fill="#f5f5f0"/><rect x="120.0" y="53.333333333333336" width="6.666666666666667" height="6.666666666666667" fill="#f5f5f0"/><rect x="126.66666666666667" y="53.333333333333336" width="6.666666666666667" height="6.666666666666667" fill="#f5f5f0"/><rect x="6.666666666666667" y="60.0" width="6.666666666666667" height="6.666666666666667" fill="#f5f5f0"/><rect x="20.0" y="60.0" width="6.666666666666667" height="6.666666666666667" fill="#f5f5f0"/><rect x="40.0" y="60.0" width="6.666666666666667" height="6.666666666666667" fill="#f5f5f0"/><rect x="46.66666666666667" y="60.0" width="6.666666666666667" height="6.666666666666667" fill="#f5f5f0"/><rect x="60.0" y="60.0" width="6.666666666666667" height="6.666666666666667" fill="#f5f5f0"/><rect x="66.66666666666667" y="60.0" width="6.666666666666667" height="6.666666666666667" fill="#f5f5f0"/><rect x="80.0" y="60.0" width="6.666666666666667" height="6.666666666666667" fill="#f5f5f0"/><rect x="86.66666666666667" y="60.0" width="6.666666666666667" height="6.666666666666667" fill="#f5f5f0"/><rect x="106.66666666666667" y="60.0" width="6.666666666666667" height="6.666666666666667" fill="#f5f5f0"/><rect x="6.666666666666667" y="66.66666666666667" width="6.666666666666667" height="6.666666666666667" fill="#f5f5f0"/><rect x="20.0" y="66.66666666666667" width="6.666666666666667" height="6.666666666666667" fill="#f5f5f0"/><rect x="40.0" y="66.66666666666667" width="6.666666666666667" height="6.666666666666667" fill="#f5f5f0"/><rect x="46.66666666666667" y="66.66666666666667" width="6.666666666666667" height="6.666666666666667" fill="#f5f5f0"/><rect x="60.0" y="66.66666666666667" width="6.666666666666667" height="6.666666666666667" fill="#f5f5f0"/><rect x="66.66666666666667" y="66.66666666666667" width="6.666666666666667" height="6.666666666666667" fill="#f5f5f0"/><rect x="73.33333333333334" y="66.66666666666667" width="6.666666666666667" height="6.666666666666667" fill="#f5f5f0"/><rect x="80.0" y="66.66666666666667" width="6.666666666666667" height="6.666666666666667" fill="#f5f5f0"/><rect x="86.66666666666667" y="66.66666666666667" width="6.666666666666667" height="6.666666666666667" fill="#f5f5f0"/></g><text x="200" y="285" text-anchor="middle" font-family="Space Grotesk,sans-serif" font-size="13" font-weight="600" fill="#b5ff2e" letter-spacing="2">SCAN ME</text><rect x="155" y="300" width="90" height="34" rx="17" fill="#3340ca"/><text x="200" y="322" text-anchor="middle" font-family="Space Grotesk,sans-serif" font-size="18" font-weight="700" fill="#f5f5f0">#097</text><text x="200" y="540" text-anchor="middle" font-family="Space Grotesk,sans-serif" font-size="9" fill="#96a9d4" letter-spacing="2">GEOCHECKR</text></svg>