<svg xmlns="http://www.w3.org/2000/svg" viewBox="0 0 400 560"><rect width="400" height="560" rx="16" fill="#111225"/><rect x="1" y="1" width="398" height="558" rx="15" fill="none" stroke="#96a9d4" stroke-width="1" opacity="0.15"/><g stroke="#96a9d4" fill="none" opacity="0.06"><path d="M-30,60 Q50,40 130,70 Q210,100 290,60 Q370,20 430,60" stroke-width="0.4"/><path d="M-30,100 Q50,80 130,110 Q210,140 290,100 Q370,60 430,100" stroke-width="0.35"/><path d="M-30,140 Q50,120 130,150 Q210,180 290,140 Q370,100 430,140" stroke-width="0.3"/><path d="M-30,380 Q50,360 130,390 Q210,420 290,380 Q370,340 430,380" stroke-width="0.4"/><path d="M-30,420 Q50,400 130,430 Q210,460 290,420 Q370,380 430,420" stroke-width="0.35"/><path d="M-30,460 Q50,440 130,470 Q210,500 290,460 Q370,420 430,460" stroke-width="0.3"/><path d="M-30,500 Q50,480 130,510 Q210,540 290,500 Q370,460 430,500" stroke-width="0.25"/></g><text x="200" y="55" text-anchor="middle" font-family="Space Grotesk,sans-serif" font-size="11" font-weight="600" fill="#b5ff2e" letter-spacing="4">GEOCHECKR</text><text x="200" y="195" text-anchor="middle" font-family="Space Grotesk,sans-serif" font-size="44" font-weight="700" fill="#f5f5f0">Brazzaville</text><text x="200" y="235" text-anchor="middle" font-family="Space Grotesk,sans-serif" font-size="16" fill="#96a9d4">Congo</text><line x1="110" y1="265" x2="290" y2="265" stroke="#3340ca" stroke-width="0.8" opacity="0.4"/><text x="200" y="305" text-anchor="middle" font-family="Noto Sans,sans-serif" font-size="26" fill="#f5f5f0">Brazzaville</text><text x="200" y="335" text-anchor="middle" font-family="Space Grotesk,sans-serif" font-size="10" fill="#96a9d4" letter-spacing="1.5">LOCAL NAME</text><text x="200" y="395" text-anchor="middle" font-family="Space Grotesk,monospace" font-size="13" fill="#96a9d4">4.2634°S  15.2429°E</text><rect x="155" y="415" width="90" height="34" rx="17" fill="#3340ca" opacity="0.4"/><text x="200" y="437" text-anchor="middle" font-family="Space Grotesk,sans-serif" font-size="18" font-weight="700" fill="#f5f5f0">#115</text><text x="200" y="540" text-anchor="middle" font-family="Space Grotesk,sans-serif" font-size="9" fill="#96a9d4" letter-spacing="2">GEOCHECKR</text></svg>