<svg xmlns="http://www.w3.org/2000/svg" viewBox="0 0 400 560"><rect width="400" height="560" rx="16" fill="#111225"/><rect x="1" y="1" width="398" height="558" rx="15" fill="none" stroke="#3340ca" stroke-width="1" opacity="0.2"/><g stroke="#3340ca" fill="none" opacity="0.04"><path d="M-20,100 Q60,80 120,110 Q180,140 240,100 Q300,60 360,100 Q400,130 420,100" stroke-width="0.5"/><path d="M-20,450 Q60,430 120,460 Q180,490 240,450 Q300,410 360,450 Q400,480 420,450" stroke-width="0.5"/></g><text x="200" y="60" text-anchor="middle" font-family="Space Grotesk,sans-serif" font-size="14" font-weight="700" fill="#a6d700" letter-spacing="3">GEOCHECKR</text><g transform="translate(130,140)"><rect x="0.0" y="0.0" width="46.66666666666667" height="46.66666666666667" fill="#3340ca"/><rect x="6.666666666666667" y="6.666666666666667" width="33.333333333333336" height="33.333333333333336" fill="#111225"/><rect x="13.333333333333334" y="13.333333333333334" width="20.0" height="20.0" fill="#3340ca"/><rect x="93.33333333333334" y="0.0" width="46.66666666666667" height="46.66666666666667" fill="#3340ca"/><rect x="100.0" y="6.666666666666667" width="33.333333333333336" height="33.333333333333336" fill="#111225"/><rect x="106.66666666666667" y="13.333333333333334" width="20.0" height="20.0" fill="#3340ca"/><rect x="0.0" y="93.33333333333334" width="46.66666666666667" height="46.66666666666667" fill="#3340ca"/><rect x="6.666666666666667" y="100.0" width="33.333333333333336" height="33.333333333333336" fill="#111225"/><rect x="13.333333333333334" y="106.66666666666667" width="20.0" height="20.0" fill="#3340ca"/><rect x="53.333333333333336" y="0.0" width="6.666666666666667" height="6.666666666666667" fill="#3340ca"/><rect x="60.0" y="0.0" width="6.666666666666667" height="6.666666666666667" fill="#a6d700"/><rect x="66.66666666666667" y="0.0" width="6.666666666666667" height="6.666666666666667" fill="#3340ca"/><rect x="86.66666666666667" y="0.0" width="6.666666666666667" height="6.666666666666667" fill="#3340ca"/><rect x="46.66666666666667" y="6.666666666666667" width="6.666666666666667" height="6.666666666666667" fill="#3340ca"/><rect x="53.333333333333336" y="6.666666666666667" width="6.666666666666667" height="6.666666666666667" fill="#a6d700"/><rect x="66.66666666666667" y="6.666666666666667" width="6.666666666666667" height="6.666666666666667" fill="#3340ca"/><rect x="86.66666666666667" y="6.666666666666667" width="6.666666666666667" height="6.666666666666667" fill="#3340ca"/><rect x="46.66666666666667" y="13.333333333333334" width="6.666666666666667" height="6.666666666666667" fill="#a6d700"/><rect x="53.333333333333336" y="13.333333333333334" width="6.666666666666667" height="6.666666666666667" fill="#3340ca"/><rect x="66.66666666666667" y="13.333333333333334" width="6.666666666666667" height="6.666666666666667" fill="#a6d700"/><rect x="80.0" y="13.333333333333334" width="6.666666666666667" height="6.666666666666667" fill="#3340ca"/><rect x="66.66666666666667" y="20.0" width="6.666666666666667" height="6.666666666666667" fill="#3340ca"/><rect x="73.33333333333334" y="20.0" width="6.666666666666667" height="6.666666666666667" fill="#3340ca"/><rect x="80.0" y="20.0" width="6.666666666666667" height="6.666666666666667" fill="#a6d700"/><rect x="86.66666666666667" y="20.0" width="6.666666666666667" height="6.666666666666667" fill="#3340ca"/><rect x="60.0" y="26.666666666666668" width="6.666666666666667" height="6.666666666666667" fill="#3340ca"/><rect x="80.0" y="26.666666666666668" width="6.666666666666667" height="6.666666666666667" fill="#3340ca"/><rect x="86.66666666666667" y="26.666666666666668" width="6.666666666666667" height="6.666666666666667" fill="#3340ca"/><rect x="53.333333333333336" y="33.333333333333336" width="6.666666666666667" height="6.666666666666667" fill="#3340ca"/><rect x="60.0" y="33.333333333333336" width="6.666666666666667" height="6.666666666666667" fill="#3340ca"/><rect x="66.66666666666667" y="33.333333333333336" width="6.666666666666667" height="6.666666666666667" fill="#a6d700"/><rect x="80.0" y="33.333333333333336" width="6.666666666666667" height="6.666666666666667" fill="#3340ca"/><rect x="46.66666666666667" y="40.0" width="6.666666666666667" height="6.666666666666667" fill="#3340ca"/><rect x="53.333333333333336" y="40.0" width="6.666666666666667" height="6.666666666666667" fill="#3340ca"/><rect x="66.66666666666667" y="40.0" width="6.666666666666667" height="6.666666666666667" fill="#3340ca"/><rect x="73.33333333333334" y="40.0" width="6.666666666666667" height="6.666666666666667" fill="#3340ca"/><rect x="0.0" y="46.66666666666667" width="6.666666666666667" height="6.666666666666667" fill="#3340ca"/><rect x="6.666666666666667" y="46.66666666666667" width="6.666666666666667" height="6.666666666666667" fill="#3340ca"/><rect x="13.333333333333334" y="46.66666666666667" width="6.666666666666667" height="6.666666666666667" fill="#a6d700"/><rect x="20.0" y="46.66666666666667" width="6.666666666666667" height="6.666666666666667" fill="#3340ca"/><rect x="26.666666666666668" y="46.66666666666667" width="6.666666666666667" height="6.666666666666667" fill="#3340ca"/><rect x="53.333333333333336" y="46.66666666666667" width="6.666666666666667" height="6.666666666666667" fill="#a6d700"/><rect x="66.66666666666667" y="46.66666666666667" width="6.666666666666667" height="6.666666666666667" fill="#3340ca"/><rect x="80.0" y="46.66666666666667" width="6.666666666666667" height="6.666666666666667" fill="#3340ca"/><rect x="100.0" y="46.66666666666667" width="6.666666666666667" height="6.666666666666667" fill="#3340ca"/><rect x="133.33333333333334" y="46.66666666666667" width="6.666666666666667" height="6.666666666666667" fill="#a6d700"/><rect x="6.666666666666667" y="53.333333333333336" width="6.666666666666667" height="6.666666666666667" fill="#a6d700"/><rect x="20.0" y="53.333333333333336" width="6.666666666666667" height="6.666666666666667" fill="#3340ca"/><rect x="93.33333333333334" y="53.333333333333336" width="6.666666666666667" height="6.666666666666667" fill="#3340ca"/><rect x="100.0" y="53.333333333333336" width="6.666666666666667" height="6.666666666666667" fill="#3340ca"/><rect x="106.66666666666667" y="53.333333333333336" width="6.666666666666667" height="6.666666666666667" fill="#a6d700"/><rect x="113.33333333333334" y="53.333333333333336" width="6.666666666666667" height="6.666666666666667" fill="#3340ca"/><rect x="120.0" y="53.333333333333336" width="6.666666666666667" height="6.666666666666667" fill="#3340ca"/><rect x="126.66666666666667" y="53.333333333333336" width="6.666666666666667" height="6.666666666666667" fill="#a6d700"/><rect x="20.0" y="60.0" width="6.666666666666667" height="6.666666666666667" fill="#a6d700"/><rect x="26.666666666666668" y="60.0" width="6.666666666666667" height="6.666666666666667" fill="#3340ca"/><rect x="33.333333333333336" y="60.0" width="6.666666666666667" height="6.666666666666667" fill="#3340ca"/><rect x="40.0" y="60.0" width="6.666666666666667" height="6.666666666666667" fill="#a6d700"/><rect x="53.333333333333336" y="60.0" width="6.666666666666667" height="6.666666666666667" fill="#3340ca"/><rect x="60.0" y="60.0" width="6.666666666666667" height="6.666666666666667" fill="#a6d700"/><rect x="66.66666666666667" y="60.0" width="6.666666666666667" height="6.666666666666667" fill="#3340ca"/><rect x="100.0" y="60.0" width="6.666666666666667" height="6.666666666666667" fill="#a6d700"/><rect x="120.0" y="60.0" width="6.666666666666667" height="6.666666666666667" fill="#a6d700"/><rect x="126.66666666666667" y="60.0" width="6.666666666666667" height="6.666666666666667" fill="#3340ca"/><rect x="133.33333333333334" y="60.0" width="6.666666666666667" height="6.666666666666667" fill="#3340ca"/><rect x="26.666666666666668" y="66.66666666666667" width="6.666666666666667" height="6.666666666666667" fill="#3340ca"/><rect x="40.0" y="66.66666666666667" width="6.666666666666667" height="6.666666666666667" fill="#3340ca"/><rect x="46.66666666666667" y="66.66666666666667" width="6.666666666666667" height="6.666666666666667" fill="#3340ca"/><rect x="53.333333333333336" y="66.66666666666667" width="6.666666666666667" height="6.666666666666667" fill="#a6d700"/><rect x="60.0" y="66.66666666666667" width="6.666666666666667" height="6.666666666666667" fill="#3340ca"/><rect x="73.33333333333334" y="66.66666666666667" width="6.666666666666667" height="6.666666666666667" fill="#a6d700"/><rect x="100.0" y="66.66666666666667" width="6.666666666666667" height="6.666666666666667" fill="#3340ca"/></g><text x="200" y="320" text-anchor="middle" font-family="Space Grotesk,sans-serif" font-size="12" font-weight="600" fill="#bdc2ff" letter-spacing="1">SCAN FÜR STREET VIEW</text><rect x="160" y="340" width="80" height="32" rx="16" fill="#3340ca"/><text x="200" y="361" text-anchor="middle" font-family="Space Grotesk,sans-serif" font-size="16" font-weight="700" fill="#fff">#067</text><text x="200" y="530" text-anchor="middle" font-family="Space Grotesk,sans-serif" font-size="10" fill="#8f8fa0" letter-spacing="2">QR CARD GAME</text></svg>