<?xml version="1.0" encoding="UTF-8"?>
<svg id="Layer_1" xmlns="http://www.w3.org/2000/svg" version="1.1" viewBox="0 0 1024 1024">
  <!-- Generator: Adobe Illustrator 30.2.1, SVG Export Plug-In . SVG Version: 2.1.1 Build 1)  -->
  <defs>
    <style>
      .st0 {
        fill: #c6ff00;
      }

      .st1 {
        stroke-width: 16px;
      }

      .st1, .st2 {
        fill: none;
        stroke: #c6ff00;
        stroke-miterlimit: 10;
      }

      .st3 {
        fill: #3340ca;
      }

      .st2 {
        stroke-width: 7.8px;
      }

      .st4 {
        fill: #0a0b1f;
      }
    </style>
  </defs>
  <circle class="st0" cx="512.4" cy="512.4" r="507.8"/>
  <path class="st4" d="M628.1,615.2c-1,21-5.1,39.8-13.3,55.7-9.3,18.1-22.7,31.9-40,41.4-17.3,9.5-37.5,14.3-60.5,14.3s-43.9-4.4-61.7-13.1c-17.8-8.7-31.5-21.2-41.1-37.4-9.7-16.2-14.5-34.9-14.5-56.1v-200.5c0-24,4.8-45.2,14.3-63.6s22.9-32.6,40.2-42.5c17.3-10,37.3-15,60.1-15s30.6,2.7,45.1,8.2c14.5,5.5,27.1,13.4,37.9,23.8,10.4,10.1,17.9,21.9,22.6,35.6,0,0-.5,1.6,3.3,1.6h133.5c2.4,0,1.6-2,1.6-2-8.2-39.4-23.6-74.1-46.1-104.1-22.9-30.5-51.5-54.1-85.8-70.8-34.3-16.7-71.7-25-112.2-25s-92.5,10.5-129.9,31.6c-37.4,21-66.3,50.7-86.7,89-20.4,38.3-30.6,82.7-30.6,133.2v200.5c0,47.7,10.4,89.6,31.1,125.7,20.7,36.1,50,64.1,87.9,83.9,37.9,19.8,81.6,29.7,131.1,29.7s92.5-10.5,129.9-31.6c37.4-21,66.3-50.8,86.7-89.3,19-35.8,28.4-77.2,29.7-123.4,0,0,.3-2.2-2.1-2.2h-128c-2.5,0-2.4,2.4-2.4,2.4Z"/>
  <rect class="st3" x="525.1" y="475.3" width="235.6" height="123.4" rx="5.2" ry="5.2"/>
  <g>
    <g>
      <line class="st1" x1="512.4" y1="90.7" x2="512.4" y2="22.3"/>
      <line class="st1" x1="512.4" y1="1002.5" x2="512.4" y2="934.1"/>
    </g>
    <g>
      <line class="st1" x1="934.1" y1="512.4" x2="1002.5" y2="512.4"/>
      <line class="st1" x1="22.3" y1="512.4" x2="90.8" y2="512.4"/>
    </g>
  </g>
  <g>
    <g>
      <g>
        <line class="st2" x1="512.4" y1="22.2" x2="512.4" y2="33.3"/>
        <line class="st2" x1="512.4" y1="991.4" x2="512.4" y2="1002.5"/>
      </g>
      <g>
        <line class="st2" x1="1002.6" y1="512.4" x2="991.5" y2="512.4"/>
        <line class="st2" x1="33.4" y1="512.4" x2="22.3" y2="512.4"/>
      </g>
    </g>
    <g>
      <g>
        <line class="st2" x1="267.4" y1="87.9" x2="272.9" y2="97.5"/>
        <line class="st2" x1="752" y1="927.3" x2="757.5" y2="936.9"/>
      </g>
      <g>
        <line class="st2" x1="936.9" y1="267.3" x2="927.3" y2="272.9"/>
        <line class="st2" x1="97.6" y1="751.9" x2="87.9" y2="757.5"/>
      </g>
    </g>
    <g>
      <g>
        <line class="st2" x1="87.9" y1="267.3" x2="97.6" y2="272.9"/>
        <line class="st2" x1="927.3" y1="751.9" x2="936.9" y2="757.5"/>
      </g>
      <g>
        <line class="st2" x1="757.5" y1="87.9" x2="752" y2="97.5"/>
        <line class="st2" x1="272.9" y1="927.3" x2="267.4" y2="936.9"/>
      </g>
    </g>
  </g>
</svg>