<?xml version="1.0" encoding="UTF-8"?>
<svg id="Layer_1" xmlns="http://www.w3.org/2000/svg" version="1.1" viewBox="0 0 1280 1280">
  <!-- Generator: Adobe Illustrator 30.2.1, SVG Export Plug-In . SVG Version: 2.1.1 Build 1)  -->
  <defs>
    <style>
      .st0 {
        fill: #fff;
      }
    </style>
  </defs>
  <circle cx="639.7" cy="640.3" r="632.3"/>
  <g>
    <path class="st0" d="M1184,640.3c0-.2,0-.4,0-.5,0-.8,0-1.5,0-2.3-1.5-297-244.4-539.9-541.6-541.4h-5.4c-145.4.7-281.7,58.1-384,161.4-101.4,102.5-157.2,238-157.3,382.1,0,.3,0,.5,0,.8s0,.3,0,.5c0,.8,0,1.5,0,2.3.7,145.4,58,281.7,161.4,384,102.6,101.6,238.4,157.4,382.8,157.4h0s0,0,0,0,0,0,0,0c.9,0,1.8,0,2.7,0,298.9-1.5,540.9-245,541.3-543.4,0-.3,0-.5,0-.8ZM1034.1,915.8c-39.1-25.9-80.2-47.6-122.5-65,18.3-58.1,28.8-118.3,31.4-179h176.7c-5.7,88.4-35.2,172.2-85.6,243.9ZM942.8,608.7c-2.9-60.2-13.7-120.2-32.5-178.3,42.8-17.6,84.1-39.4,123.3-65.3,49.2,70,80.2,153.5,86.1,243.6h-176.9ZM993.9,315.6c-33.7,21.9-69,40.6-105.7,55.7-26.2-61.1-61.7-119.4-106.8-172.8-6.9-8.1-14-16.1-21.3-23.9,91.1,23.7,171.9,73.6,233.8,141.1ZM608.2,861v249.1c-22.1-19.7-42.8-41-61.9-63.5-40.4-47.8-73.1-101.1-97.3-157.9,52-15.9,105.4-25.1,159.2-27.7ZM427.1,829.4c-15.9-50.9-25.3-103.9-27.8-157.6h208.9v126c-61.2,2.7-122.1,13.2-181.1,31.6ZM671.3,419.6v-243.9c22.1,19.7,42.8,41,61.9,63.5,40.1,47.4,71.8,99.2,95.5,153.4-50.8,15.4-103.5,24.5-157.3,27ZM850.9,451.7c16.4,51.2,25.9,104,28.7,157h-208.4v-126c61.5-2.7,121.7-13.1,179.6-31ZM671.3,1110.1v-249.1c53.8,2.6,107.2,11.8,159.1,27.7-35,82.4-88.3,158.3-159.1,221.4ZM671.3,797.8v-126h208.6c-2.5,53.3-11.8,106.4-27.7,157.6-59-18.3-119.8-28.8-180.9-31.5ZM520,174.1c-34.5,37.3-64.4,78.2-89.3,122.3-8.6,15.2-3.2,34.4,12,43,15.2,8.6,34.4,3.2,43-12,32.1-56.8,73.2-107.8,122.6-151.8v243.8c-32.1-1.6-69.5-5.1-94.8-9.2-17.3-2.8-33.4,8.9-36.2,26.1-2.8,17.2,8.9,33.4,26.1,36.2,28.5,4.6,69.7,8.5,104.9,10.1v126.1h-208.4c1.8-30.8,5.7-67.4,11.4-86.4,4.9-16.7-4.6-34.3-21.3-39.2-16.7-4.9-34.3,4.6-39.2,21.3-8,27.1-12.3,71.3-14,104.3h-176.8c5.7-88.4,35.2-172.2,85.6-244,17,11.2,34.5,21.8,52.3,31.5,4.8,2.6,10,3.9,15.1,3.9,11.2,0,22-5.9,27.7-16.5,8.3-15.3,2.7-34.5-12.6-42.8-14.5-7.9-28.8-16.5-42.8-25.6,4.2-4.6,8.4-9.1,12.7-13.5,62.2-62.8,138.7-106.4,222.2-127.7ZM159.7,671.8h176.4c2.5,61.1,13.3,121.3,31.5,179-42.3,17.4-83.3,39.1-122.4,64.9-50.3-71.7-79.9-155.5-85.6-244ZM285.1,965.3c33.5-21.7,68.4-40.3,104.5-55.2,26.8,63.8,63.3,123.6,108.6,177.2,4.9,5.8,10,11.5,15.2,17.2-79.3-21.5-152.1-63-212-122.3-5.6-5.5-11-11.1-16.2-16.9ZM766.3,1104.5c52.9-58.5,94.2-124.4,123.6-194.4,36,15,71,33.5,104.4,55.2-4.2,4.5-8.3,9-12.7,13.4-60.5,61.1-134.5,103.9-215.4,125.8Z"/>
    <circle class="st0" cx="406.4" cy="407.9" r="47.6"/>
  </g>
</svg>