<svg xmlns="http://www.w3.org/2000/svg" viewBox="0 0 800 600" width="800" height="600">
  <defs>
    <clipPath id="b"><rect width="800" height="600"/></clipPath>
  </defs>
  <rect width="800" height="600" fill="#111225"/>
  <g clip-path="url(#b)">
    
    <!-- Dense topographic field — like a real contour map -->
    
    <!-- Main mountain cluster — center-left -->
    <g stroke="#3340ca" fill="none">
      <path d="M250,200 Q280,190 310,210 Q330,225 360,205 Q380,190 400,200" stroke-width="0.3" opacity="0.2"/>
      <path d="M240,220 Q270,210 300,230 Q320,245 350,225 Q370,210 390,220 Q410,230 430,215" stroke-width="0.3" opacity="0.18"/>
      <path d="M230,240 Q260,230 290,250 Q310,265 340,245 Q360,230 380,240 Q400,250 420,235 Q440,225 460,240" stroke-width="0.3" opacity="0.16"/>
      <path d="M220,260 Q250,250 280,270 Q300,285 330,265 Q350,250 370,260 Q390,270 410,255 Q430,245 450,260 Q470,270 490,258" stroke-width="0.3" opacity="0.14"/>
      <path d="M210,280 Q240,270 270,290 Q290,305 320,285 Q340,270 360,280 Q380,290 400,275 Q420,265 440,280 Q460,290 480,278 Q500,270 520,282" stroke-width="0.3" opacity="0.12"/>
      <path d="M200,300 Q230,290 260,310 Q280,325 310,305 Q330,290 350,300 Q370,310 390,295 Q410,285 430,300 Q450,310 470,298 Q490,290 510,302 Q530,310 550,298" stroke-width="0.3" opacity="0.1"/>
      <path d="M190,320 Q220,310 250,330 Q270,345 300,325 Q320,310 340,320 Q360,330 380,315 Q400,305 420,320 Q440,330 460,318 Q480,310 500,322 Q520,330 540,318 Q560,310 580,320" stroke-width="0.3" opacity="0.08"/>
      <path d="M180,340 Q210,330 240,350 Q260,365 290,345 Q310,330 330,340 Q350,350 370,335 Q390,325 410,340 Q430,350 450,338 Q470,330 490,342 Q510,350 530,338 Q550,330 570,340 Q590,348 610,338" stroke-width="0.2" opacity="0.06"/>
      <path d="M170,360 Q200,350 230,370 Q250,385 280,365 Q300,350 320,360 Q340,370 360,355 Q380,345 400,360 Q420,370 440,358 Q460,350 480,362 Q500,370 520,358 Q540,350 560,360 Q580,368 600,358 Q620,350 640,360" stroke-width="0.2" opacity="0.05"/>
      <path d="M160,380 Q190,370 220,390 Q240,405 270,385 Q290,370 310,380 Q330,390 350,375 Q370,365 390,380 Q410,390 430,378 Q450,370 470,382 Q490,390 510,378 Q530,370 550,380 Q570,388 590,378 Q610,370 630,380 Q650,386 670,378" stroke-width="0.15" opacity="0.04"/>
    </g>
    
    <!-- Secondary cluster — right -->
    <g stroke="#a6d700" fill="none">
      <path d="M580,150 Q600,140 620,155 Q635,165 655,150 Q670,140 685,152" stroke-width="0.3" opacity="0.15"/>
      <path d="M570,170 Q590,160 610,175 Q625,185 645,170 Q660,160 675,172 Q690,180 710,168" stroke-width="0.3" opacity="0.13"/>
      <path d="M560,190 Q580,180 600,195 Q615,205 635,190 Q650,180 665,192 Q680,200 700,188 Q715,180 730,190" stroke-width="0.3" opacity="0.11"/>
      <path d="M550,210 Q570,200 590,215 Q605,225 625,210 Q640,200 655,212 Q670,220 690,208 Q705,200 720,210 Q735,218 750,208" stroke-width="0.3" opacity="0.09"/>
      <path d="M540,230 Q560,220 580,235 Q595,245 615,230 Q630,220 645,232 Q660,240 680,228 Q695,220 710,230 Q725,238 740,228 Q755,220 770,230" stroke-width="0.2" opacity="0.07"/>
      <path d="M530,250 Q550,240 570,255 Q585,265 605,250 Q620,240 635,252 Q650,260 670,248 Q685,240 700,250 Q715,258 730,248 Q745,240 760,250 Q775,256 790,248" stroke-width="0.2" opacity="0.05"/>
    </g>
    
    <!-- Low ridge — bottom -->
    <g stroke="#bdc2ff" fill="none">
      <path d="M50,480 Q120,470 200,490 Q280,510 360,485 Q440,465 520,490 Q600,510 680,488 Q740,472 800,485" stroke-width="0.4" opacity="0.08"/>
      <path d="M30,500 Q100,490 180,510 Q260,530 340,505 Q420,485 500,510 Q580,530 660,508 Q720,492 790,505" stroke-width="0.3" opacity="0.06"/>
      <path d="M10,520 Q80,510 160,530 Q240,550 320,525 Q400,505 480,530 Q560,550 640,528 Q700,512 780,525" stroke-width="0.25" opacity="0.04"/>
    </g>
    
    <!-- Peak dots -->
    <g fill="#a6d700" opacity="0.25">
      <circle cx="340" cy="205" r="2"/>
      <circle cx="290" cy="250" r="1.5"/>
      <circle cx="380" cy="240" r="1.5"/>
      <circle cx="635" cy="155" r="2"/>
      <circle cx="670" cy="172" r="1.5"/>
    </g>
    <g fill="#3340ca" opacity="0.2">
      <circle cx="250" cy="310" r="1.5"/>
      <circle cx="440" cy="295" r="1.5"/>
      <circle cx="550" cy="298" r="1.2"/>
    </g>
    
    <!-- Fine grid -->
    <g stroke="#bdc2ff" stroke-width="0.15" opacity="0.025">
      <line x1="0" y1="100" x2="800" y2="100"/>
      <line x1="0" y1="200" x2="800" y2="200"/>
      <line x1="0" y1="300" x2="800" y2="300"/>
      <line x1="0" y1="400" x2="800" y2="400"/>
      <line x1="0" y1="500" x2="800" y2="500"/>
      <line x1="100" y1="0" x2="100" y2="600"/>
      <line x1="200" y1="0" x2="200" y2="600"/>
      <line x1="300" y1="0" x2="300" y2="600"/>
      <line x1="400" y1="0" x2="400" y2="600"/>
      <line x1="500" y1="0" x2="500" y2="600"/>
      <line x1="600" y1="0" x2="600" y2="600"/>
      <line x1="700" y1="0" x2="700" y2="600"/>
    </g>
    
  </g>
</svg>