<svg xmlns="http://www.w3.org/2000/svg" viewBox="0 0 400 400" width="400" height="400">
  <defs>
    <pattern id="contours" x="0" y="0" width="200" height="200" patternUnits="userSpaceOnUse">
      <path d="M0,40 C50,30 100,50 150,35 S200,45 200,40" stroke="#bdc2ff" stroke-width="0.8" fill="none" opacity="0.06"/>
      <path d="M0,80 C60,70 110,90 160,75 S200,85 200,80" stroke="#bdc2ff" stroke-width="0.8" fill="none" opacity="0.06"/>
      <path d="M0,120 C40,110 90,130 140,115 S200,125 200,120" stroke="#bdc2ff" stroke-width="0.8" fill="none" opacity="0.06"/>
      <path d="M0,160 C55,150 105,170 155,155 S200,165 200,160" stroke="#bdc2ff" stroke-width="0.8" fill="none" opacity="0.06"/>
      <circle cx="50" cy="60" r="3" fill="#a6d700" opacity="0.1"/>
      <circle cx="150" cy="100" r="2" fill="#a6d700" opacity="0.1"/>
      <circle cx="100" cy="160" r="4" fill="#a6d700" opacity="0.08"/>
    </pattern>
  </defs>
  <rect width="400" height="400" fill="#111225"/>
  <rect width="400" height="400" fill="url(#contours)"/>
</svg>
